# Blender v2.80 (sub 44) OBJ File: 'baloon.blend'
# www.blender.org
mtllib baloon.mtl
o Cube.001
v 0.510569 2.707958 -0.510569
v 0.510569 1.686821 -0.510569
v 0.510569 2.707958 0.510569
v 0.510569 1.686821 0.510569
v -0.510569 2.707958 -0.510569
v -0.510569 1.686821 -0.510569
v -0.510569 2.707958 0.510569
v -0.510569 1.686821 0.510569
vt 0.375000 0.000000
vt 0.625000 0.000000
vt 0.625000 0.250000
vt 0.375000 0.250000
vt 0.375000 0.250000
vt 0.625000 0.250000
vt 0.625000 0.500000
vt 0.375000 0.500000
vt 0.625000 0.750000
vt 0.375000 0.750000
vt 0.625000 0.750000
vt 0.625000 1.000000
vt 0.375000 1.000000
vt 0.125000 0.500000
vt 0.375000 0.500000
vt 0.375000 0.750000
vt 0.125000 0.750000
vt 0.625000 0.500000
vt 0.875000 0.500000
vt 0.875000 0.750000
vn 0.0000 1.0000 0.0000
vn 0.0000 0.0000 1.0000
vn -1.0000 0.0000 0.0000
vn 0.0000 -1.0000 0.0000
vn 1.0000 0.0000 0.0000
vn 0.0000 0.0000 -1.0000
usemtl Material
s off
f 1/1/1 5/2/1 7/3/1 3/4/1
f 4/5/2 3/6/2 7/7/2 8/8/2
f 8/8/3 7/7/3 5/9/3 6/10/3
f 6/10/4 2/11/4 4/12/4 8/13/4
f 2/14/5 1/15/5 3/16/5 4/17/5
f 6/18/6 5/19/6 1/20/6 2/11/6
o Cube.002
v 0.043133 -0.001733 -0.043133
v 0.043133 1.684329 -0.043133
v 0.043133 -0.001733 0.043133
v 0.043133 1.684329 0.043133
v -0.043133 -0.001733 -0.043133
v -0.043133 1.684329 -0.043133
v -0.043133 -0.001733 0.043133
v -0.043133 1.684329 0.043133
vt 0.375000 0.000000
vt 0.375000 0.250000
vt 0.625000 0.250000
vt 0.625000 0.000000
vt 0.375000 0.250000
vt 0.375000 0.500000
vt 0.625000 0.500000
vt 0.625000 0.250000
vt 0.375000 0.750000
vt 0.625000 0.750000
vt 0.375000 1.000000
vt 0.625000 1.000000
vt 0.625000 0.750000
vt 0.125000 0.500000
vt 0.125000 0.750000
vt 0.375000 0.750000
vt 0.375000 0.500000
vt 0.625000 0.500000
vt 0.875000 0.750000
vt 0.875000 0.500000
vn 0.0000 -1.0000 0.0000
vn 0.0000 0.0000 1.0000
vn -1.0000 0.0000 0.0000
vn 0.0000 1.0000 0.0000
vn 1.0000 0.0000 0.0000
vn 0.0000 0.0000 -1.0000
usemtl Material
s off
f 9/21/7 11/22/7 15/23/7 13/24/7
f 12/25/8 16/26/8 15/27/8 11/28/8
f 16/26/9 14/29/9 13/30/9 15/27/9
f 14/29/10 16/31/10 12/32/10 10/33/10
f 10/34/11 12/35/11 11/36/11 9/37/11
f 14/38/12 10/33/12 9/39/12 13/40/12
