# Blender v2.80 (sub 44) OBJ File: 'panda.blend'
# www.blender.org
mtllib panda.mtl
o Cube.000_Cube.024
v -0.145949 0.824922 0.417862
v -0.145949 0.007692 0.417862
v -0.145949 0.824922 -0.411563
v -0.145949 0.007692 -0.411563
v -0.963179 0.824922 0.417862
v -0.963179 0.007692 0.417862
v -0.963179 0.824922 -0.411563
v -0.963179 0.007692 -0.411563
v 0.276511 0.890077 0.377003
v 0.276511 0.072847 0.377003
v 0.276511 0.890077 -0.370703
v 0.276511 0.072847 -0.370703
v -0.139462 0.890077 0.377003
v -0.139462 0.072847 0.377003
v -0.139462 0.890077 -0.370703
v -0.139462 0.072847 -0.370703
v 0.699170 0.987811 0.307475
v 0.699170 0.170581 0.307475
v 0.699170 0.987811 -0.301175
v 0.699170 0.170581 -0.301175
v 0.283196 0.987811 0.307475
v 0.283196 0.170581 0.307475
v 0.283196 0.987811 -0.301175
v 0.283196 0.170581 -0.301175
v 1.082172 0.616647 -0.088721
v 1.082172 0.430872 -0.242719
v 1.082172 0.616647 -0.049207
v 1.082172 0.430872 -0.049207
v 1.121010 0.616647 -0.088721
v 1.121010 0.430872 -0.242719
v 1.121010 0.616647 -0.049207
v 1.121010 0.430872 -0.049207
v 1.216448 0.398269 -0.080315
v 1.208536 0.335130 -0.110182
v 1.082172 0.616647 0.095021
v 1.082172 0.430872 0.249019
v 1.082172 0.616647 0.055507
v 1.082172 0.430872 0.055507
v 1.121010 0.616647 0.095021
v 1.121010 0.430872 0.249019
v 1.121010 0.616647 0.055507
v 1.121010 0.430872 0.055507
v 1.216448 0.398269 0.086615
v 1.208536 0.335130 0.116482
v 1.084063 0.537386 -0.117758
v 1.084063 0.316945 -0.117758
v 1.084063 0.537386 0.124058
v 1.084063 0.316945 0.124058
v 0.596151 0.164410 -0.369226
v 0.596151 -0.486887 -0.369226
v 0.596151 0.164410 -0.153785
v 0.596151 -0.486887 -0.153785
v 0.380709 0.164410 -0.369226
v 0.380709 -0.486887 -0.369226
v 0.380709 0.164410 -0.153785
v 0.380709 -0.486887 -0.153785
v 1.074405 0.851582 -0.327272
v 1.074405 0.252514 -0.327272
v 0.705264 0.851582 -0.327272
v 0.705264 0.252514 -0.327272
v -0.692688 0.003097 -0.369226
v -0.692688 -0.496456 -0.369226
v -0.692688 0.003097 -0.153785
v -0.692688 -0.496456 -0.153785
v -0.908129 0.003097 -0.369226
v 0.596151 0.164410 0.375526
v 0.596151 -0.486887 0.375526
v 0.596151 0.164410 0.160085
v 0.596151 -0.486887 0.160085
v 0.380709 0.164410 0.375526
v 0.380709 -0.486887 0.375526
v 0.380709 0.164410 0.160085
v 0.380709 -0.486887 0.160085
v 1.074405 0.252514 0.333572
v -0.908129 -0.496456 -0.369226
v -0.908129 0.003097 -0.153785
v 0.705264 0.851582 0.333572
v 0.705264 0.252514 0.333572
v -0.908129 -0.496456 -0.153785
v -0.692688 0.003097 0.375526
v -0.692688 -0.496456 0.375526
v -0.692688 0.003097 0.160085
v -0.692688 -0.496456 0.160085
v -0.908129 0.003097 0.375526
v -0.908129 -0.496456 0.375526
v -0.908129 0.003097 0.160085
v -0.908129 -0.496456 0.160085
v 1.074405 0.851582 0.003150
v 1.094153 0.946482 -0.403900
v 1.094153 0.779769 -0.403900
v 1.094153 0.946482 -0.237187
v 1.094153 0.779769 -0.237187
v 1.005792 0.946482 -0.403900
v 1.005792 0.779769 -0.403900
v 1.005792 0.946482 -0.237187
v 1.005792 0.779769 -0.237187
v 0.276511 0.072847 0.003150
v -0.145949 0.007692 0.003150
v -0.139462 0.072847 0.003150
v 1.238572 0.352905 0.003150
v 0.705264 0.851582 0.003150
v -0.963179 0.007692 0.003150
v -0.963179 0.824922 0.003150
v 1.074405 0.252514 0.003150
v -0.145949 0.824922 0.003150
v 0.276511 0.890077 0.003150
v 1.084063 0.537386 0.003150
v 0.283196 0.987811 0.003150
v -0.139462 0.890077 0.003150
v 0.699170 0.170581 0.003150
v 0.283196 0.170581 0.003150
v 0.699170 0.987811 0.003150
v 0.705264 0.252514 0.003150
v 1.084063 0.316945 0.003150
v 1.238572 0.402950 0.003150
v 1.226272 0.384652 0.066800
v 1.074405 0.851582 0.333572
v 1.094153 0.946482 0.410200
v 1.094153 0.779769 0.410200
v 1.094153 0.946482 0.243487
v 1.094153 0.779769 0.243487
v 1.226272 0.384652 -0.060501
v 1.005792 0.946482 0.410200
v 1.005792 0.779769 0.410200
v 1.227014 0.337709 0.003150
v 1.005792 0.946482 0.243487
v 1.005792 0.779769 0.243487
vt 0.389317 0.007273
vt 0.205568 0.007273
vt 0.205568 0.191022
vt 0.389317 0.191022
vt 0.186282 0.899626
vt 0.167082 0.902688
vt 0.159098 0.945949
vt 0.186282 0.945675
vt 0.974094 0.810401
vt 0.974094 0.772331
vt 0.952354 0.796461
vt 0.425026 0.389317
vt 0.425026 0.205568
vt 0.331497 0.205568
vt 0.331497 0.389317
vt 0.254009 0.957537
vt 0.254009 0.909096
vt 0.205568 0.909096
vt 0.205568 0.957537
vt 0.806396 0.757785
vt 0.854837 0.757785
vt 0.854837 0.611345
vt 0.806396 0.611345
vt 0.421717 0.961877
vt 0.421717 0.952992
vt 0.430450 0.952992
vt 0.430450 0.961877
vt 0.078992 0.977864
vt 0.070259 0.977864
vt 0.070259 0.936094
vt 0.078992 0.936094
vt 0.698761 0.205568
vt 0.630335 0.205568
vt 0.630335 0.389317
vt 0.698761 0.389317
vt 0.756816 0.396581
vt 0.713306 0.396581
vt 0.747932 0.354811
vt 0.756816 0.354811
vt 0.316952 0.389317
vt 0.316952 0.205568
vt 0.223422 0.205568
vt 0.223423 0.389317
vt 0.615789 0.389317
vt 0.615789 0.205568
vt 0.547364 0.205568
vt 0.547364 0.389317
vt 0.403260 0.963352
vt 0.394527 0.963352
vt 0.394527 0.909096
vt 0.403260 0.909096
vt 0.421717 0.413050
vt 0.421717 0.497109
vt 0.605467 0.497109
vt 0.605467 0.413050
vt 0.889368 0.884652
vt 0.937809 0.884652
vt 0.937809 0.772331
vt 0.889368 0.772331
vt 0.596387 0.767615
vt 0.596387 0.718050
vt 0.565454 0.749330
vt 0.568182 0.764897
vt 0.687094 0.804097
vt 0.687094 0.760587
vt 0.728864 0.760587
vt 0.728864 0.769472
vt 0.702417 0.141970
vt 0.785416 0.141970
vt 0.785416 0.007273
vt 0.702417 0.007273
vt 0.668453 0.970014
vt 0.668453 0.921573
vt 0.620012 0.921573
vt 0.620012 0.970014
vt 0.850586 0.352008
vt 0.850586 0.205568
vt 0.802145 0.205568
vt 0.802145 0.352008
vt 0.903250 0.559490
vt 0.903250 0.413050
vt 0.854809 0.413050
vt 0.854809 0.559490
vt 0.791851 0.907028
vt 0.791851 0.760587
vt 0.743410 0.760587
vt 0.743410 0.907028
vt 0.668453 0.907028
vt 0.668453 0.760587
vt 0.620012 0.760587
vt 0.620012 0.907028
vt 0.806396 0.865860
vt 0.874822 0.865860
vt 0.874822 0.772331
vt 0.806396 0.772331
vt 0.787600 0.205568
vt 0.713306 0.205568
vt 0.713306 0.340265
vt 0.787600 0.340265
vt 0.316995 0.909096
vt 0.268554 0.909096
vt 0.268554 0.957537
vt 0.316995 0.957537
vt 0.532818 0.205568
vt 0.439572 0.205568
vt 0.439572 0.389317
vt 0.532818 0.389317
vt 0.078992 0.867293
vt 0.078992 0.921548
vt 0.070259 0.921548
vt 0.070259 0.867293
vt 0.144553 0.948066
vt 0.144553 0.899626
vt 0.096112 0.899626
vt 0.096112 0.948066
vt 0.917823 0.723666
vt 0.917823 0.611345
vt 0.869383 0.611345
vt 0.869383 0.723666
vt 0.007273 0.191022
vt 0.191022 0.191022
vt 0.191022 0.007273
vt 0.007273 0.007273
vt 0.980810 0.723666
vt 0.980810 0.611345
vt 0.932369 0.611345
vt 0.932369 0.723666
vt 0.007273 0.389317
vt 0.100802 0.389317
vt 0.100802 0.205568
vt 0.007273 0.205568
vt 0.939599 0.738212
vt 0.923880 0.739858
vt 0.939599 0.744052
vt 0.966236 0.525371
vt 0.966236 0.413050
vt 0.917796 0.413050
vt 0.917796 0.525371
vt 0.470158 0.938446
vt 0.470158 0.826125
vt 0.421717 0.826125
vt 0.421717 0.938446
vt 0.728864 0.862153
vt 0.687094 0.827528
vt 0.687094 0.818643
vt 0.728864 0.818643
vt 0.587612 0.604900
vt 0.587612 0.511654
vt 0.403863 0.511654
vt 0.403863 0.604900
vt 0.565454 0.898301
vt 0.565454 0.935785
vt 0.602938 0.935785
vt 0.602938 0.898301
vt 0.948131 0.368700
vt 0.948131 0.294407
vt 0.865132 0.294407
vt 0.865132 0.368700
vt 0.962677 0.357424
vt 0.962677 0.315654
vt 0.971409 0.315654
vt 0.971409 0.357424
vt 0.115348 0.389317
vt 0.208877 0.389317
vt 0.208877 0.205568
vt 0.115348 0.205568
vt 0.966236 0.539917
vt 0.917796 0.539917
vt 0.917796 0.588358
vt 0.966236 0.588358
vt 0.487921 0.718050
vt 0.403863 0.718050
vt 0.403863 0.811579
vt 0.487921 0.811579
vt 0.948131 0.279861
vt 0.948131 0.205568
vt 0.865132 0.205568
vt 0.865132 0.279861
vt 0.972222 0.824947
vt 0.952354 0.824947
vt 0.952354 0.862431
vt 0.972222 0.862431
vt 0.777277 0.413050
vt 0.702984 0.413050
vt 0.702984 0.547747
vt 0.777277 0.547747
vt 0.978971 0.142436
vt 0.978971 0.096386
vt 0.951787 0.096112
vt 0.959771 0.139374
vt 0.957990 0.389209
vt 0.957990 0.397941
vt 0.949106 0.397941
vt 0.949106 0.389209
vt 0.007273 0.718050
vt 0.007273 0.852747
vt 0.081566 0.852747
vt 0.081566 0.718050
vt 0.596387 0.782160
vt 0.568182 0.784878
vt 0.565454 0.800445
vt 0.596387 0.831725
vt 0.972222 0.966491
vt 0.972222 0.929007
vt 0.952354 0.929007
vt 0.952354 0.966491
vt 0.497108 0.007273
vt 0.403863 0.007273
vt 0.403863 0.191022
vt 0.497108 0.191022
vt 0.189641 0.816654
vt 0.096112 0.816654
vt 0.096112 0.885080
vt 0.189641 0.885080
vt 0.791823 0.559490
vt 0.840264 0.559490
vt 0.840264 0.413050
vt 0.791823 0.413050
vt 0.962677 0.301108
vt 0.962677 0.257598
vt 0.971409 0.257598
vt 0.971409 0.301108
vt 0.331541 0.957537
vt 0.379981 0.957537
vt 0.379981 0.909096
vt 0.331541 0.909096
vt 0.854837 0.880406
vt 0.806396 0.880406
vt 0.806396 0.992727
vt 0.854837 0.992727
vt 0.728864 0.876699
vt 0.728864 0.918469
vt 0.719980 0.918469
vt 0.685354 0.876699
vt 0.403863 0.619446
vt 0.403863 0.703504
vt 0.587612 0.703504
vt 0.587612 0.619446
vt 0.846239 0.397941
vt 0.846239 0.370756
vt 0.817955 0.372459
vt 0.904295 0.389209
vt 0.904295 0.397941
vt 0.860785 0.397941
vt 0.860785 0.389209
vt 0.899349 0.593479
vt 0.899349 0.574036
vt 0.895883 0.578736
vt 0.743410 0.921573
vt 0.743410 0.970014
vt 0.791851 0.970014
vt 0.791851 0.921573
vt 0.873513 0.907069
vt 0.873513 0.880406
vt 0.869383 0.905898
vt 0.799962 0.153713
vt 0.848402 0.153713
vt 0.848402 0.007273
vt 0.799962 0.007273
vt 0.685354 0.970499
vt 0.722839 0.970499
vt 0.722839 0.933015
vt 0.685354 0.933015
vt 0.960493 0.044757
vt 0.980360 0.044757
vt 0.980360 0.007273
vt 0.960493 0.007273
vt 0.565454 0.950331
vt 0.565454 0.987815
vt 0.602938 0.987815
vt 0.602938 0.950331
vt 0.982544 0.205568
vt 0.962677 0.205568
vt 0.962677 0.243052
vt 0.982544 0.243052
vt 0.881337 0.574036
vt 0.843853 0.574036
vt 0.843853 0.593903
vt 0.881337 0.593903
vt 0.829307 0.574036
vt 0.791823 0.574036
vt 0.791823 0.593903
vt 0.829307 0.593903
vt 0.604900 0.007273
vt 0.511654 0.007273
vt 0.511654 0.191022
vt 0.604900 0.191022
vt 0.687871 0.191022
vt 0.687871 0.007273
vt 0.619446 0.007273
vt 0.619446 0.191022
vt 0.620012 0.596799
vt 0.688438 0.596799
vt 0.688438 0.413050
vt 0.620012 0.413050
vt 0.205568 0.894550
vt 0.299097 0.894550
vt 0.299097 0.826125
vt 0.205568 0.826125
vt 0.972222 0.914461
vt 0.972222 0.876977
vt 0.952354 0.876977
vt 0.952354 0.914461
vt 0.702417 0.183701
vt 0.751982 0.183701
vt 0.751982 0.156515
vt 0.702417 0.156515
vt 0.289627 0.811579
vt 0.289627 0.718050
vt 0.205568 0.718050
vt 0.205568 0.811579
vt 0.862948 0.096112
vt 0.862948 0.179111
vt 0.937242 0.179111
vt 0.937242 0.096112
vt 0.223422 0.497109
vt 0.407172 0.497109
vt 0.407172 0.403863
vt 0.223422 0.403863
vt 0.007273 0.497109
vt 0.191022 0.497109
vt 0.191022 0.403863
vt 0.007273 0.403863
vt 0.717557 0.611345
vt 0.717557 0.746042
vt 0.791851 0.746042
vt 0.791851 0.611345
vt 0.502467 0.864490
vt 0.550908 0.864490
vt 0.550908 0.718050
vt 0.502467 0.718050
vt 0.189641 0.802109
vt 0.189641 0.718050
vt 0.096112 0.718050
vt 0.096112 0.802109
vt 0.191022 0.619446
vt 0.007273 0.619446
vt 0.007273 0.703504
vt 0.191022 0.703504
vt 0.389317 0.511654
vt 0.205568 0.511654
vt 0.205568 0.604900
vt 0.389317 0.604900
vt 0.007273 0.604900
vt 0.191022 0.604900
vt 0.191022 0.511654
vt 0.007273 0.511654
vt 0.389317 0.619446
vt 0.205568 0.619446
vt 0.205568 0.703504
vt 0.389317 0.703504
vt 0.388231 0.811579
vt 0.388231 0.718050
vt 0.304172 0.718050
vt 0.304172 0.811579
vt 0.776385 0.588956
vt 0.776385 0.562292
vt 0.767094 0.575601
vt 0.862948 0.081566
vt 0.945947 0.081566
vt 0.945947 0.007273
vt 0.862948 0.007273
vt 0.055714 0.867293
vt 0.007273 0.867293
vt 0.007273 0.979614
vt 0.055714 0.979614
vt 0.703012 0.746042
vt 0.703012 0.611345
vt 0.620012 0.611345
vt 0.620012 0.746042
vt 0.602938 0.846271
vt 0.565454 0.846271
vt 0.565454 0.883755
vt 0.602938 0.883755
vt 0.980071 0.156981
vt 0.951787 0.182463
vt 0.980071 0.184167
vt 0.937809 0.899198
vt 0.889368 0.899198
vt 0.889368 0.947639
vt 0.937809 0.947639
vt 0.909334 0.738212
vt 0.894758 0.745350
vt 0.909334 0.749464
vt 0.957611 0.738212
vt 0.954144 0.752956
vt 0.957611 0.757655
vt 0.934560 0.395048
vt 0.934560 0.389209
vt 0.918841 0.393402
vt 0.775818 0.156515
vt 0.766527 0.169871
vt 0.775818 0.183179
vt 0.869383 0.750301
vt 0.880212 0.753358
vt 0.880212 0.738212
vt 0.799962 0.168259
vt 0.799962 0.188126
vt 0.837446 0.188126
vt 0.837446 0.168259
vt 0.208877 0.403863
vt 0.208877 0.439532
vt 0.206138 0.436227
vt 0.873513 0.921614
vt 0.869383 0.922785
vt 0.873513 0.948277
vt 0.803410 0.396581
vt 0.803410 0.370756
vt 0.771362 0.376032
vt 0.550908 0.879036
vt 0.502467 0.879036
vt 0.502467 0.991358
vt 0.550908 0.991358
vt 0.752549 0.589478
vt 0.752549 0.562292
vt 0.702984 0.562292
vt 0.702984 0.589478
vt 0.313643 0.826125
vt 0.313643 0.894550
vt 0.407172 0.894550
vt 0.407172 0.826125
vn 0.0000 0.0000 -1.0000
vn 0.6934 0.7147 -0.0914
vn 0.1437 -0.9896 0.0009
vn 0.0000 1.0000 0.0000
vn 0.0000 0.0000 1.0000
vn 1.0000 0.0000 0.0000
vn -1.0000 0.0000 0.0000
vn 0.0000 0.6382 -0.7699
vn 0.2157 0.0963 -0.9717
vn 0.0000 -1.0000 0.0000
vn 0.0000 0.6382 0.7699
vn 0.9130 0.0753 0.4010
vn 0.6934 0.7147 0.0914
vn 0.2157 0.0963 0.9717
vn 0.1446 -0.9895 0.0000
vn 0.9221 0.2862 0.2605
vn 0.7906 -0.6013 0.1152
vn 0.9652 -0.1057 0.2392
vn 0.9818 0.0000 -0.1897
vn 0.9221 0.2862 -0.2605
vn 0.9130 0.0753 -0.4010
vn 0.9652 -0.1057 -0.2392
vn 0.9818 0.0000 0.1897
vn 0.7906 -0.6013 -0.1152
vn 0.1437 -0.9896 -0.0009
usemtl Material
s off
f 8/1/1 7/2/1 3/3/1 4/4/1
f 115/5/2 33/6/2 45/7/2 107/8/2
f 44/9/3 114/10/3 125/11/3
f 16/12/1 15/13/1 11/14/1 12/15/1
f 80/16/4 82/17/4 86/18/4 84/19/4
f 69/20/1 73/21/1 72/22/1 68/23/1
f 25/24/4 27/25/4 31/26/4 29/27/4
f 28/28/5 32/29/5 31/30/5 27/31/5
f 18/32/6 110/33/6 112/34/6 17/35/6
f 32/36/6 30/37/6 29/38/6 31/39/6
f 24/40/1 23/41/1 19/42/1 20/43/1
f 22/44/7 21/45/7 108/46/7 111/47/7
f 30/48/8 26/49/8 25/50/8 29/51/8
f 10/52/6 97/53/6 106/54/6 9/55/6
f 87/56/7 85/57/7 84/58/7 86/59/7
f 46/60/9 45/61/9 33/62/9 34/63/9
f 26/64/7 28/65/7 27/66/7 25/67/7
f 58/68/1 60/69/1 59/70/1 57/71/1
f 54/72/10 50/73/10 52/74/10 56/75/10
f 50/76/6 49/77/6 51/78/6 52/79/6
f 54/80/1 53/81/1 49/82/1 50/83/1
f 52/84/5 51/85/5 55/86/5 56/87/5
f 56/88/7 55/89/7 53/90/7 54/91/7
f 111/92/10 24/93/10 20/94/10 110/95/10
f 77/96/7 101/97/7 113/98/7 78/99/7
f 71/100/10 73/101/10 69/102/10 67/103/10
f 98/104/6 4/105/6 3/106/6 105/107/6
f 40/108/11 39/109/11 35/110/11 36/111/11
f 61/112/4 65/113/4 76/114/4 63/115/4
f 64/116/5 63/117/5 76/118/5 79/119/5
f 6/120/5 2/121/5 1/122/5 5/123/5
f 79/124/7 76/125/7 65/126/7 75/127/7
f 14/128/5 10/129/5 9/130/5 13/131/5
f 43/132/12 44/133/12 116/134/12
f 62/135/6 61/136/6 63/137/6 64/138/6
f 75/139/1 65/140/1 61/141/1 62/142/1
f 36/143/7 35/144/7 37/145/7 38/146/7
f 1/147/4 105/148/4 103/149/4 5/150/4
f 126/151/7 127/152/7 124/153/7 123/154/7
f 117/155/4 88/156/4 101/157/4 77/158/4
f 38/159/1 37/160/1 41/161/1 42/162/1
f 22/163/5 18/164/5 17/165/5 21/166/5
f 66/167/4 68/168/4 72/169/4 70/170/4
f 9/171/4 106/172/4 109/173/4 13/174/4
f 78/175/10 113/176/10 104/177/10 74/178/10
f 127/179/10 121/180/10 119/181/10 124/182/10
f 104/183/6 58/184/6 57/185/6 88/186/6
f 115/187/13 107/188/13 47/189/13 43/190/13
f 35/191/4 39/192/4 41/193/4 37/194/4
f 104/195/6 88/196/6 117/197/6 74/198/6
f 48/199/14 44/200/14 43/201/14 47/202/14
f 120/203/1 121/204/1 127/205/1 126/206/1
f 5/207/7 103/208/7 102/209/7 6/210/7
f 111/211/10 110/212/10 18/213/10 22/214/10
f 67/215/6 69/216/6 68/217/6 66/218/6
f 30/219/10 32/220/10 28/221/10 26/222/10
f 49/223/4 53/224/4 55/225/4 51/226/4
f 85/227/5 81/228/5 80/229/5 84/230/5
f 42/231/6 41/232/6 39/233/6 40/234/6
f 13/235/7 109/236/7 99/237/7 14/238/7
f 114/239/15 46/240/15 34/241/15
f 40/242/10 36/243/10 38/244/10 42/245/10
f 115/246/16 43/247/16 116/248/16
f 75/249/10 62/250/10 64/251/10 79/252/10
f 100/253/17 44/254/17 125/255/17
f 73/256/7 71/257/7 70/258/7 72/259/7
f 89/260/6 91/261/6 92/262/6 90/263/6
f 91/264/5 95/265/5 96/266/5 92/267/5
f 95/268/7 93/269/7 94/270/7 96/271/7
f 93/272/1 89/273/1 90/274/1 94/275/1
f 91/276/4 89/277/4 93/278/4 95/279/4
f 96/280/10 94/281/10 90/282/10 92/283/10
f 6/284/10 102/285/10 98/286/10 2/287/10
f 20/288/6 19/289/6 112/290/6 110/291/6
f 24/292/7 111/293/7 108/294/7 23/295/7
f 19/296/4 23/297/4 108/298/4 112/299/4
f 123/300/5 124/301/5 119/302/5 118/303/5
f 45/304/7 46/305/7 114/306/7 107/307/7
f 11/308/4 15/309/4 109/310/4 106/311/4
f 60/312/10 58/313/10 104/314/10 113/315/10
f 3/316/4 7/317/4 103/318/4 105/319/4
f 7/320/7 8/321/7 102/322/7 103/323/7
f 59/324/7 60/325/7 113/326/7 101/327/7
f 71/328/5 67/329/5 66/330/5 70/331/5
f 14/332/10 99/333/10 97/334/10 10/335/10
f 15/336/7 16/337/7 99/338/7 109/339/7
f 8/340/10 4/341/10 98/342/10 102/343/10
f 98/344/6 105/345/6 1/346/6 2/347/6
f 12/348/6 11/349/6 106/350/6 97/351/6
f 16/352/10 12/353/10 97/354/10 99/355/10
f 44/356/18 100/357/18 116/358/18
f 57/359/4 59/360/4 101/361/4 88/362/4
f 83/363/1 87/364/1 86/365/1 82/366/1
f 74/367/5 117/368/5 77/369/5 78/370/5
f 118/371/6 119/372/6 121/373/6 120/374/6
f 114/375/15 44/376/15 48/377/15
f 85/378/10 87/379/10 83/380/10 81/381/10
f 100/382/19 122/383/19 115/384/19
f 115/385/20 122/386/20 33/387/20
f 33/388/21 122/389/21 34/390/21
f 34/391/22 122/392/22 100/393/22
f 100/394/23 115/395/23 116/396/23
f 120/397/4 126/398/4 123/399/4 118/400/4
f 114/401/1 100/402/1 125/403/1
f 100/404/24 125/405/24 34/406/24
f 34/407/25 125/408/25 114/409/25
f 81/410/6 83/411/6 82/412/6 80/413/6
f 47/414/7 107/415/7 114/416/7 48/417/7
f 17/418/4 112/419/4 108/420/4 21/421/4
